<?xml version="1.0" encoding="UTF-8" standalone="no"?>
<!-- Created with Inkscape (http://www.inkscape.org/) -->

<svg
   version="1.1"
   id="svg1"
   width="1443.1333"
   height="1360"
   viewBox="0 0 1443.1333 1360"
   sodipodi:docname="Biodevices Without Borders.svg"
   inkscape:version="1.3.2 (091e20e, 2023-11-25, custom)"
   xmlns:inkscape="http://www.inkscape.org/namespaces/inkscape"
   xmlns:sodipodi="http://sodipodi.sourceforge.net/DTD/sodipodi-0.dtd"
   xmlns:xlink="http://www.w3.org/1999/xlink"
   xmlns="http://www.w3.org/2000/svg"
   xmlns:svg="http://www.w3.org/2000/svg">
  <defs
     id="defs1">
    <linearGradient
       id="swatch2"
       inkscape:swatch="solid">
      <stop
         style="stop-color:#000000;stop-opacity:1;"
         offset="0"
         id="stop2" />
    </linearGradient>
    <clipPath
       clipPathUnits="userSpaceOnUse"
       id="clipPath78">
      <path
         d="M 0,1020 H 1082.349 V 0 H 0 Z"
         transform="translate(-93.822577,-201.72361)"
         id="path78" />
    </clipPath>
    <clipPath
       clipPathUnits="userSpaceOnUse"
       id="clipPath80">
      <path
         d="M 0,1020 H 1082.349 V 0 H 0 Z"
         transform="translate(2.5000001e-5)"
         id="path80" />
    </clipPath>
    <clipPath
       clipPathUnits="userSpaceOnUse"
       id="clipPath82">
      <path
         d="M 0,1020 H 1082.349 V 0 H 0 Z"
         transform="translate(-269.59453,-195.96608)"
         id="path82" />
    </clipPath>
    <clipPath
       clipPathUnits="userSpaceOnUse"
       id="clipPath84">
      <path
         d="M 0,1020 H 1082.349 V 0 H 0 Z"
         transform="translate(-397.71441,-170.35268)"
         id="path84" />
    </clipPath>
    <clipPath
       clipPathUnits="userSpaceOnUse"
       id="clipPath86">
      <path
         d="M 0,1020 H 1082.349 V 0 H 0 Z"
         transform="translate(-511.59021,-223.31963)"
         id="path86" />
    </clipPath>
    <clipPath
       clipPathUnits="userSpaceOnUse"
       id="clipPath88">
      <path
         d="M 0,1020 H 1082.349 V 0 H 0 Z"
         transform="translate(-603.86992,-153.45488)"
         id="path88" />
    </clipPath>
    <clipPath
       clipPathUnits="userSpaceOnUse"
       id="clipPath90">
      <path
         d="M 0,1020 H 1082.349 V 0 H 0 Z"
         transform="translate(2.5000001e-5)"
         id="path90" />
    </clipPath>
    <clipPath
       clipPathUnits="userSpaceOnUse"
       id="clipPath92">
      <path
         d="M 0,1020 H 1082.349 V 0 H 0 Z"
         transform="translate(-784.79399,-151.93988)"
         id="path92" />
    </clipPath>
    <clipPath
       clipPathUnits="userSpaceOnUse"
       id="clipPath94">
      <path
         d="M 0,1020 H 1082.349 V 0 H 0 Z"
         transform="translate(-880.78462,-223.31963)"
         id="path94" />
    </clipPath>
    <clipPath
       clipPathUnits="userSpaceOnUse"
       id="clipPath96">
      <path
         d="M 0,1020 H 1082.349 V 0 H 0 Z"
         transform="translate(-1012.016,-178.6125)"
         id="path96" />
    </clipPath>
    <clipPath
       clipPathUnits="userSpaceOnUse"
       id="clipPath98">
      <path
         d="M 0,1020 H 1082.349 V 0 H 0 Z"
         transform="translate(-129.8861,-68.416727)"
         id="path98" />
    </clipPath>
    <clipPath
       clipPathUnits="userSpaceOnUse"
       id="clipPath100">
      <path
         d="M 0,1020 H 1082.349 V 0 H 0 Z"
         transform="translate(2.5000001e-5)"
         id="path100" />
    </clipPath>
    <clipPath
       clipPathUnits="userSpaceOnUse"
       id="clipPath102">
      <path
         d="M 0,1020 H 1082.349 V 0 H 0 Z"
         transform="translate(-235.68801,-76.675577)"
         id="path102" />
    </clipPath>
    <clipPath
       clipPathUnits="userSpaceOnUse"
       id="clipPath104">
      <path
         d="M 0,1020 H 1082.349 V 0 H 0 Z"
         transform="translate(-312.14233,-68.416727)"
         id="path104" />
    </clipPath>
    <clipPath
       clipPathUnits="userSpaceOnUse"
       id="clipPath106">
      <path
         d="M 0,1020 H 1082.349 V 0 H 0 Z"
         transform="translate(-355.52743,-89.193002)"
         id="path106" />
    </clipPath>
    <clipPath
       clipPathUnits="userSpaceOnUse"
       id="clipPath108">
      <path
         d="M 0,1020 H 1082.349 V 0 H 0 Z"
         transform="translate(-445.57544,-68.416727)"
         id="path108" />
    </clipPath>
    <clipPath
       clipPathUnits="userSpaceOnUse"
       id="clipPath110">
      <path
         d="M 0,1020 H 1082.349 V 0 H 0 Z"
         transform="translate(-506.29071,-76.675577)"
         id="path110" />
    </clipPath>
    <clipPath
       clipPathUnits="userSpaceOnUse"
       id="clipPath112">
      <path
         d="M 0,1020 H 1082.349 V 0 H 0 Z"
         transform="translate(-599.35251,-92.008427)"
         id="path112" />
    </clipPath>
    <clipPath
       clipPathUnits="userSpaceOnUse"
       id="clipPath114">
      <path
         d="M 0,1020 H 1082.349 V 0 H 0 Z"
         transform="translate(-669.69682,-89.193002)"
         id="path114" />
    </clipPath>
    <clipPath
       clipPathUnits="userSpaceOnUse"
       id="clipPath116">
      <path
         d="M 0,1020 H 1082.349 V 0 H 0 Z"
         transform="translate(-753.52259,-110.6001)"
         id="path116" />
    </clipPath>
    <clipPath
       clipPathUnits="userSpaceOnUse"
       id="clipPath118">
      <path
         d="M 0,1020 H 1082.349 V 0 H 0 Z"
         transform="translate(-804.6837,-76.675577)"
         id="path118" />
    </clipPath>
    <clipPath
       clipPathUnits="userSpaceOnUse"
       id="clipPath120">
      <path
         d="M 0,1020 H 1082.349 V 0 H 0 Z"
         transform="translate(-875.51092,-102.564)"
         id="path120" />
    </clipPath>
    <clipPath
       clipPathUnits="userSpaceOnUse"
       id="clipPath122">
      <path
         d="M 0,1020 H 1082.349 V 0 H 0 Z"
         transform="translate(-949.03942,-110.6001)"
         id="path122" />
    </clipPath>
    <clipPath
       clipPathUnits="userSpaceOnUse"
       id="clipPath124">
      <path
         d="M 0,1020 H 1082.349 V 0 H 0 Z"
         transform="translate(-1012.016,-80.713277)"
         id="path124" />
    </clipPath>
    <linearGradient
       id="New_Gradient_Swatch_58"
       data-name="New Gradient Swatch 58"
       x1="-388.41"
       y1="342.14001"
       x2="-555.09998"
       y2="221.84"
       gradientTransform="matrix(-1,0,0,1,-122.7,0)"
       gradientUnits="userSpaceOnUse">
      <stop
         offset="0"
         stop-color="#06baf7"
         stop-opacity="0"
         id="stop1" />
      <stop
         offset=".26"
         stop-color="#05b4f3"
         stop-opacity=".03"
         id="stop2-0" />
      <stop
         offset=".45"
         stop-color="#05a4e6"
         stop-opacity=".12"
         id="stop3" />
      <stop
         offset=".61"
         stop-color="#0488d1"
         stop-opacity=".26"
         id="stop4" />
      <stop
         offset=".76"
         stop-color="#0361b3"
         stop-opacity=".48"
         id="stop5" />
      <stop
         offset=".9"
         stop-color="#012f8c"
         stop-opacity=".74"
         id="stop6" />
      <stop
         offset="1"
         stop-color="#000068"
         id="stop7" />
    </linearGradient>
    <linearGradient
       id="linear-gradient"
       x1="364.37"
       y1="172.7"
       x2="364.37"
       y2="534.35999"
       gradientUnits="userSpaceOnUse">
      <stop
         offset="0"
         stop-color="#52e1b1"
         id="stop8" />
      <stop
         offset="1"
         stop-color="#355df2"
         id="stop9" />
    </linearGradient>
    <linearGradient
       id="linear-gradient-4"
       x1="399.85999"
       y1="363.17999"
       x2="120.57"
       y2="453.57001"
       gradientUnits="userSpaceOnUse"
       gradientTransform="matrix(1.8404005,0,0,1.8404005,156.57323,-61.61284)">
      <stop
         offset="0"
         stop-color="#06baf7"
         stop-opacity="0"
         id="stop21" />
      <stop
         offset=".19"
         stop-color="#05a2e5"
         stop-opacity=".13"
         id="stop22" />
      <stop
         offset=".53"
         stop-color="#0364b5"
         stop-opacity=".46"
         id="stop23" />
      <stop
         offset=".99"
         stop-color="#000168"
         stop-opacity=".99"
         id="stop24" />
      <stop
         offset="1"
         stop-color="#000068"
         id="stop25" />
    </linearGradient>
    <linearGradient
       inkscape:collect="always"
       xlink:href="#New_Gradient_Swatch_58"
       id="linearGradient32"
       gradientUnits="userSpaceOnUse"
       gradientTransform="matrix(-1.8404005,0,0,1.8404005,-69.243909,1445.6812)"
       x1="-388.41"
       y1="342.14001"
       x2="-555.09998"
       y2="221.84" />
    <linearGradient
       inkscape:collect="always"
       xlink:href="#linear-gradient"
       id="linearGradient33"
       gradientUnits="userSpaceOnUse"
       gradientTransform="matrix(1.8404005,0,0,1.8404005,156.57323,1445.6812)"
       x1="364.37"
       y1="172.7"
       x2="364.37"
       y2="534.35999" />
    <linearGradient
       inkscape:collect="always"
       xlink:href="#linear-gradient"
       id="linearGradient34"
       gradientTransform="matrix(1.8404005,0,0,1.8404005,156.57323,1445.6812)"
       x1="308.35999"
       y1="172.7"
       x2="308.35999"
       y2="534.35999" />
    <linearGradient
       inkscape:collect="always"
       xlink:href="#linear-gradient"
       id="linearGradient35"
       gradientTransform="matrix(1.8404005,0,0,1.8404005,156.57323,1445.6812)"
       x1="307"
       y1="172.7"
       x2="307"
       y2="534.35999" />
    <linearGradient
       inkscape:collect="always"
       xlink:href="#New_Gradient_Swatch_58"
       id="linearGradient36"
       gradientTransform="matrix(1.8404005,0,0,1.8404005,156.57323,1445.6812)"
       x1="142.14"
       y1="295.59"
       x2="315.44"
       y2="124.57" />
    <linearGradient
       inkscape:collect="always"
       xlink:href="#linear-gradient-4"
       id="linearGradient37"
       gradientUnits="userSpaceOnUse"
       gradientTransform="matrix(1.8404005,0,0,1.8404005,156.57323,1445.6812)"
       x1="399.85999"
       y1="363.17999"
       x2="120.57"
       y2="453.57001" />
  </defs>
  <sodipodi:namedview
     id="namedview1"
     pagecolor="#505050"
     bordercolor="#ffffff"
     borderopacity="1"
     inkscape:showpageshadow="0"
     inkscape:pageopacity="0"
     inkscape:pagecheckerboard="1"
     inkscape:deskcolor="#505050"
     inkscape:zoom="0.66875"
     inkscape:cx="474.01869"
     inkscape:cy="845.60748"
     inkscape:window-width="3840"
     inkscape:window-height="2054"
     inkscape:window-x="-11"
     inkscape:window-y="-11"
     inkscape:window-maximized="1"
     inkscape:current-layer="layer-MC0">
    <inkscape:page
       x="-3.1982097e-05"
       y="1.1088236e-05"
       inkscape:label="2"
       id="page75"
       width="1443.1333"
       height="1360"
       margin="1.017436 0 0"
       inkscape:export-filename="Option 3\Light\option 3 - light.jpg"
       inkscape:export-xdpi="400"
       inkscape:export-ydpi="400"
       bleed="0" />
  </sodipodi:namedview>
  <g
     id="layer-MC0"
     inkscape:groupmode="layer"
     inkscape:label="Layer 1"
     transform="translate(-7.9377163e-5,-1507.2897)">
    <path
       id="path77"
       d="m 0,0 v -28.87 h 15.307 c 6.467,0 11.241,1.237 14.322,3.712 3.081,2.476 4.622,6.265 4.622,11.368 C 34.251,-4.596 27.684,0 14.549,0 Z m 0,18.642 h 13.641 c 6.364,0 10.974,0.985 13.828,2.954 2.854,1.971 4.282,5.23 4.282,9.777 0,4.242 -1.553,7.285 -4.66,9.13 -3.108,1.844 -8.022,2.765 -14.738,2.765 H 0 Z m -23.489,43.875 h 34.476 c 15.712,0 27.115,-2.236 34.214,-6.707 7.096,-4.472 10.646,-11.581 10.646,-21.332 0,-6.618 -1.552,-12.048 -4.66,-16.29 -3.108,-4.245 -7.236,-6.796 -12.389,-7.655 V 9.775 c 7.021,-1.566 12.086,-4.496 15.192,-8.79 3.108,-4.293 4.661,-10.001 4.661,-17.124 0,-10.104 -3.651,-17.986 -10.95,-23.643 -7.301,-5.659 -17.213,-8.487 -29.742,-8.487 h -41.448 z"
       style="fill:#eaeaea;fill-opacity:1;fill-rule:nonzero;stroke:none"
       transform="matrix(1.3333333,0,0,-1.3333333,125.09676,2598.3247)"
       clip-path="url(#clipPath78)" />
    <path
       id="path79"
       d="M 211.411,153.455 H 188.3 v 84.718 h 23.111 z m -24.096,106.616 c 0,7.526 4.193,11.292 12.579,11.292 8.385,0 12.578,-3.766 12.578,-11.292 0,-3.588 -1.048,-6.377 -3.143,-8.373 -2.098,-1.995 -5.243,-2.992 -9.435,-2.992 -8.386,0 -12.579,3.789 -12.579,11.365"
       style="fill:#eaeaea;fill-opacity:1;fill-rule:nonzero;stroke:none"
       transform="matrix(1.3333333,0,0,-1.3333333,-3.6465163e-5,2867.2895)"
       clip-path="url(#clipPath80)" />
    <path
       id="path81"
       d="m 0,0 c 0,-8.386 1.375,-14.728 4.129,-19.02 2.752,-4.295 7.236,-6.442 13.45,-6.442 6.162,0 10.595,2.133 13.298,6.404 2.703,4.267 4.055,10.62 4.055,19.058 0,8.385 -1.363,14.674 -4.093,18.867 -2.727,4.193 -7.198,6.291 -13.412,6.291 -6.164,0 -10.608,-2.085 -13.336,-6.253 C 1.364,14.738 0,8.436 0,0 m 58.573,0 c 0,-13.792 -3.637,-24.579 -10.912,-32.358 -7.274,-7.779 -17.402,-11.668 -30.385,-11.668 -8.135,0 -15.307,1.78 -21.52,5.341 -6.214,3.562 -10.987,8.676 -14.322,15.345 -3.335,6.669 -5.001,14.447 -5.001,23.34 0,13.839 3.611,24.6 10.836,32.279 7.223,7.679 17.378,11.518 30.461,11.518 8.133,0 15.307,-1.768 21.52,-5.303 C 45.466,34.957 50.238,29.88 53.572,23.262 56.907,16.644 58.573,8.89 58.573,0"
       style="fill:#eaeaea;fill-opacity:1;fill-rule:nonzero;stroke:none"
       transform="matrix(1.3333333,0,0,-1.3333333,359.45936,2606.0014)"
       clip-path="url(#clipPath82)" />
    <path
       id="path83"
       d="m 0,0 c 5.911,0 10.242,1.717 12.996,5.152 2.754,3.435 4.255,9.27 4.509,17.505 v 2.501 c 0,9.093 -1.402,15.609 -4.207,19.549 -2.803,3.942 -7.363,5.911 -13.676,5.911 -5.152,0 -9.157,-2.185 -12.011,-6.554 -2.854,-4.371 -4.282,-10.722 -4.282,-19.058 0,-8.335 1.441,-14.586 4.32,-18.755 C -9.472,2.084 -5.355,0 0,0 m -8.107,-18.413 c -9.954,0 -17.769,3.864 -23.453,11.593 -5.684,7.73 -8.525,18.439 -8.525,32.129 0,13.892 2.891,24.715 8.676,32.47 5.784,7.754 13.755,11.632 23.908,11.632 10.658,0 18.793,-4.142 24.399,-12.427 h 0.758 C 16.493,63.298 15.914,68.93 15.914,73.882 V 101.01 H 39.101 V -16.898 H 21.369 L 16.898,-5.911 H 15.914 C 10.658,-14.246 2.654,-18.413 -8.107,-18.413"
       style="fill:#eaeaea;fill-opacity:1;fill-rule:nonzero;stroke:none"
       transform="matrix(1.3333333,0,0,-1.3333333,530.28586,2640.1526)"
       clip-path="url(#clipPath84)" />
    <path
       id="path85"
       d="m 0,0 c -4.901,0 -8.74,-1.553 -11.517,-4.66 -2.778,-3.106 -4.371,-7.515 -4.774,-13.223 H 16.141 C 16.039,-12.175 14.551,-7.766 11.67,-4.66 8.791,-1.553 4.901,0 0,0 m 3.259,-71.38 c -13.639,0 -24.299,3.762 -31.978,11.29 -7.679,7.528 -11.517,18.186 -11.517,31.978 0,14.195 3.548,25.169 10.647,32.924 7.096,7.754 16.909,11.632 29.438,11.632 11.972,0 21.293,-3.41 27.962,-10.229 6.667,-6.82 10.002,-16.243 10.002,-28.265 v -11.214 h -54.635 c 0.253,-6.569 2.198,-11.697 5.835,-15.383 3.637,-3.688 8.74,-5.532 15.307,-5.532 5.101,0 9.926,0.531 14.473,1.59 4.547,1.061 9.294,2.754 14.246,5.079 V -65.393 C 28.997,-67.415 24.677,-68.917 20.081,-69.902 15.485,-70.888 9.877,-71.38 3.259,-71.38"
       style="fill:#eaeaea;fill-opacity:1;fill-rule:nonzero;stroke:none"
       transform="matrix(1.3333333,0,0,-1.3333333,682.12026,2569.53)"
       clip-path="url(#clipPath86)" />
    <path
       id="path87"
       d="M 0,0 -32.281,84.718 H -8.108 L 8.26,36.447 c 1.817,-6.113 2.954,-11.895 3.41,-17.351 h 0.454 c 0.251,4.849 1.388,10.633 3.41,17.351 L 31.827,84.718 H 55.999 L 23.718,0 Z"
       style="fill:#eaeaea;fill-opacity:1;fill-rule:nonzero;stroke:none"
       transform="matrix(1.3333333,0,0,-1.3333333,805.15986,2662.683)"
       clip-path="url(#clipPath88)" />
    <path
       id="path89"
       d="m 710.623,153.455 h -23.111 v 84.718 h 23.111 z m -24.097,106.616 c 0,7.526 4.193,11.292 12.58,11.292 8.384,0 12.578,-3.766 12.578,-11.292 0,-3.588 -1.048,-6.377 -3.144,-8.373 -2.097,-1.995 -5.243,-2.992 -9.434,-2.992 -8.387,0 -12.58,3.789 -12.58,11.365"
       style="fill:#eaeaea;fill-opacity:1;fill-rule:nonzero;stroke:none"
       transform="matrix(1.3333333,0,0,-1.3333333,-3.6465163e-5,2867.2895)"
       clip-path="url(#clipPath90)" />
    <path
       id="path91"
       d="m 0,0 c -26.37,0 -39.555,14.473 -39.555,43.419 0,14.397 3.586,25.396 10.76,33.001 7.172,7.602 17.454,11.404 30.842,11.404 9.799,0 18.588,-1.92 26.369,-5.76 l -6.82,-17.883 c -3.637,1.466 -7.023,2.665 -10.155,3.599 -3.132,0.935 -6.264,1.404 -9.394,1.404 -12.024,0 -18.035,-8.538 -18.035,-25.614 0,-16.57 6.011,-24.855 18.035,-24.855 4.444,0 8.562,0.594 12.35,1.782 3.789,1.186 7.577,3.043 11.366,5.57 V 6.289 C 22.025,3.913 18.248,2.273 14.435,1.364 10.62,0.454 5.808,0 0,0"
       style="fill:#eaeaea;fill-opacity:1;fill-rule:nonzero;stroke:none"
       transform="matrix(1.3333333,0,0,-1.3333333,1046.392,2664.703)"
       clip-path="url(#clipPath92)" />
    <path
       id="path93"
       d="m 0,0 c -4.901,0 -8.74,-1.553 -11.517,-4.66 -2.778,-3.106 -4.371,-7.515 -4.774,-13.223 H 16.141 C 16.039,-12.175 14.551,-7.766 11.67,-4.66 8.791,-1.553 4.901,0 0,0 m 3.259,-71.38 c -13.639,0 -24.299,3.762 -31.978,11.29 -7.679,7.528 -11.517,18.186 -11.517,31.978 0,14.195 3.548,25.169 10.647,32.924 7.096,7.754 16.909,11.632 29.438,11.632 11.972,0 21.293,-3.41 27.962,-10.229 6.667,-6.82 10.002,-16.243 10.002,-28.265 v -11.214 h -54.635 c 0.253,-6.569 2.198,-11.697 5.835,-15.383 3.637,-3.688 8.74,-5.532 15.307,-5.532 5.101,0 9.926,0.531 14.473,1.59 4.547,1.061 9.294,2.754 14.246,5.079 V -65.393 C 28.997,-67.415 24.677,-68.917 20.081,-69.902 15.485,-70.888 9.877,-71.38 3.259,-71.38"
       style="fill:#eaeaea;fill-opacity:1;fill-rule:nonzero;stroke:none"
       transform="matrix(1.3333333,0,0,-1.3333333,1174.3795,2569.53)"
       clip-path="url(#clipPath94)" />
    <path
       id="path95"
       d="m 0,0 c 0,-8.689 -3.021,-15.307 -9.056,-19.854 -6.037,-4.545 -15.067,-6.819 -27.091,-6.819 -6.164,0 -11.416,0.417 -15.761,1.251 -4.344,0.832 -8.411,2.057 -12.199,3.675 v 19.095 c 4.293,-2.022 9.131,-3.713 14.511,-5.076 5.381,-1.366 10.117,-2.047 14.208,-2.047 8.384,0 12.578,2.425 12.578,7.275 0,1.817 -0.556,3.296 -1.667,4.433 -1.112,1.137 -3.03,2.425 -5.759,3.864 -2.727,1.439 -6.365,3.119 -10.911,5.039 -6.516,2.727 -11.304,5.254 -14.36,7.577 -3.057,2.324 -5.279,4.989 -6.667,7.995 -1.39,3.005 -2.085,6.707 -2.085,11.1 0,7.528 2.917,13.35 8.752,17.468 5.835,4.117 14.106,6.175 24.817,6.175 10.204,0 20.13,-2.222 29.78,-6.667 L -7.881,37.813 c -4.245,1.818 -8.211,3.308 -11.897,4.469 -3.689,1.162 -7.453,1.744 -11.29,1.744 -6.821,0 -10.231,-1.844 -10.231,-5.532 0,-2.071 1.099,-3.864 3.297,-5.379 2.198,-1.517 7.01,-3.764 14.435,-6.745 6.616,-2.678 11.468,-5.179 14.549,-7.501 3.081,-2.325 5.354,-5.001 6.82,-8.033 C -0.734,7.806 0,4.193 0,0"
       style="fill:#eaeaea;fill-opacity:1;fill-rule:nonzero;stroke:none"
       transform="matrix(1.3333333,0,0,-1.3333333,1349.3546,2629.1395)"
       clip-path="url(#clipPath96)" />
    <path
       id="path97"
       d="m 0,0 h -13.073 l -7.333,28.444 c -0.273,1.01 -0.735,3.103 -1.389,6.276 -0.655,3.173 -1.031,5.303 -1.13,6.389 -0.148,-1.333 -0.519,-3.476 -1.11,-6.426 -0.594,-2.95 -1.05,-5.054 -1.371,-6.314 L -32.702,0 h -13.036 l -13.815,54.145 h 11.295 l 6.926,-29.554 c 1.21,-5.456 2.088,-10.185 2.63,-14.183 0.148,1.406 0.487,3.584 1.019,6.536 0.529,2.951 1.031,5.24 1.499,6.87 l 7.888,30.331 h 10.852 l 7.888,-30.331 c 0.346,-1.359 0.779,-3.433 1.297,-6.222 0.519,-2.791 0.914,-5.185 1.185,-7.184 0.247,1.924 0.642,4.326 1.185,7.203 0.543,2.875 1.037,5.202 1.483,6.98 l 6.888,29.554 h 11.295 z"
       style="fill:#eaeaea;fill-opacity:1;fill-rule:nonzero;stroke:none"
       transform="matrix(1.3333333,0,0,-1.3333333,173.18146,2776.0672)"
       clip-path="url(#clipPath98)" />
    <path
       id="path99"
       d="m 183.64,68.417 h -11.295 v 41.405 h 11.295 z m -11.778,52.108 c 0,3.678 2.049,5.518 6.149,5.518 4.097,0 6.147,-1.84 6.147,-5.518 0,-1.752 -0.513,-3.117 -1.537,-4.092 -1.025,-0.975 -2.562,-1.462 -4.61,-1.462 -4.1,0 -6.149,1.851 -6.149,5.554"
       style="fill:#eaeaea;fill-opacity:1;fill-rule:nonzero;stroke:none"
       transform="matrix(1.3333333,0,0,-1.3333333,-3.6465163e-5,2867.2895)"
       clip-path="url(#clipPath100)" />
    <path
       id="path101"
       d="M 0,0 C 1.975,0 4.347,0.432 7.111,1.295 V -7.111 C 4.296,-8.369 0.839,-9 -3.259,-9 c -4.519,0 -7.808,1.142 -9.869,3.425 -2.063,2.284 -3.094,5.71 -3.094,10.279 v 19.962 h -5.406 v 4.777 l 6.222,3.778 3.259,8.74 h 7.222 V 33.146 H 6.666 v -8.48 H -4.925 V 4.704 c 0,-1.606 0.449,-2.791 1.352,-3.557 C -2.673,0.382 -1.481,0 0,0"
       style="fill:#eaeaea;fill-opacity:1;fill-rule:nonzero;stroke:none"
       transform="matrix(1.3333333,0,0,-1.3333333,314.25066,2765.0554)"
       clip-path="url(#clipPath102)" />
    <path
       id="path103"
       d="m 0,0 h -11.295 v 24.183 c 0,5.975 -2.222,8.963 -6.666,8.963 -3.162,0 -5.445,-1.073 -6.851,-3.222 -1.408,-2.147 -2.112,-5.629 -2.112,-10.443 V 0 h -11.295 v 57.627 h 11.295 V 45.886 c 0,-0.913 -0.086,-3.061 -0.26,-6.443 l -0.258,-3.334 h 0.593 c 2.518,4.049 6.518,6.074 11.999,6.074 4.863,0 8.555,-1.308 11.072,-3.925 C -1.258,35.639 0,31.888 0,26.998 Z"
       style="fill:#eaeaea;fill-opacity:1;fill-rule:nonzero;stroke:none"
       transform="matrix(1.3333333,0,0,-1.3333333,416.18976,2776.0672)"
       clip-path="url(#clipPath104)" />
    <path
       id="path105"
       d="m 0,0 c 0,-4.098 0.672,-7.197 2.02,-9.296 1.344,-2.098 3.536,-3.147 6.572,-3.147 3.012,0 5.18,1.043 6.501,3.128 1.32,2.088 1.981,5.191 1.981,9.315 0,4.099 -0.667,7.173 -2,9.223 -1.334,2.048 -3.519,3.074 -6.555,3.074 -3.014,0 -5.185,-1.019 -6.518,-3.055 C 0.666,7.203 0,4.124 0,0 m 28.629,0 c 0,-6.741 -1.778,-12.012 -5.333,-15.814 -3.555,-3.802 -8.506,-5.704 -14.852,-5.704 -3.976,0 -7.48,0.871 -10.518,2.612 -3.036,1.741 -5.369,4.24 -6.999,7.5 -1.631,3.259 -2.445,7.061 -2.445,11.406 0,6.765 1.765,12.025 5.296,15.778 3.53,3.752 8.494,5.629 14.889,5.629 3.974,0 7.48,-0.865 10.518,-2.592 3.036,-1.728 5.371,-4.21 6.999,-7.445 C 27.815,8.135 28.629,4.347 28.629,0"
       style="fill:#eaeaea;fill-opacity:1;fill-rule:nonzero;stroke:none"
       transform="matrix(1.3333333,0,0,-1.3333333,474.03656,2748.3655)"
       clip-path="url(#clipPath106)" />
    <path
       id="path107"
       d="M 0,0 -1.518,5.296 H -2.112 C -3.321,3.369 -5.037,1.883 -7.259,0.833 c -2.222,-1.048 -4.753,-1.574 -7.593,-1.574 -4.863,0 -8.53,1.303 -10.999,3.908 -2.469,2.604 -3.703,6.352 -3.703,11.239 v 26.999 h 11.295 V 17.222 c 0,-2.988 0.532,-5.229 1.593,-6.722 1.062,-1.494 2.754,-2.241 5.073,-2.241 3.162,0 5.446,1.056 6.853,3.167 1.408,2.11 2.11,5.61 2.11,10.5 V 41.405 H 8.667 V 0 Z"
       style="fill:#eaeaea;fill-opacity:1;fill-rule:nonzero;stroke:none"
       transform="matrix(1.3333333,0,0,-1.3333333,594.10056,2776.0672)"
       clip-path="url(#clipPath108)" />
    <path
       id="path109"
       d="M 0,0 C 1.975,0 4.347,0.432 7.111,1.295 V -7.111 C 4.296,-8.369 0.839,-9 -3.259,-9 c -4.519,0 -7.808,1.142 -9.869,3.425 -2.063,2.284 -3.094,5.71 -3.094,10.279 v 19.962 h -5.406 v 4.777 l 6.222,3.778 3.259,8.74 h 7.222 V 33.146 H 6.666 v -8.48 H -4.925 V 4.704 c 0,-1.606 0.449,-2.791 1.352,-3.557 C -2.673,0.382 -1.481,0 0,0"
       style="fill:#eaeaea;fill-opacity:1;fill-rule:nonzero;stroke:none"
       transform="matrix(1.3333333,0,0,-1.3333333,675.05426,2765.0554)"
       clip-path="url(#clipPath110)" />
    <path
       id="path111"
       d="m 0,0 v -14.11 h 7.48 c 3.16,0 5.494,0.604 7.001,1.813 1.505,1.21 2.258,3.063 2.258,5.556 C 16.739,-2.246 13.53,0 7.109,0 Z m 0,9.111 h 6.666 c 3.111,0 5.363,0.481 6.759,1.445 1.395,0.962 2.093,2.555 2.093,4.777 0,2.074 -0.76,3.56 -2.278,4.462 -1.518,0.901 -3.92,1.352 -7.203,1.352 L 0,21.147 Z M -11.482,30.553 H 5.369 c 7.678,0 13.253,-1.091 16.721,-3.277 3.469,-2.185 5.204,-5.661 5.204,-10.425 0,-3.235 -0.758,-5.889 -2.278,-7.963 C 23.498,6.814 21.48,5.567 18.962,5.148 V 4.777 c 3.432,-0.765 5.906,-2.198 7.424,-4.296 1.52,-2.098 2.278,-4.887 2.278,-8.369 0,-4.938 -1.783,-8.791 -5.351,-11.555 -3.568,-2.765 -8.413,-4.149 -14.536,-4.149 h -20.259 z"
       style="fill:#eaeaea;fill-opacity:1;fill-rule:nonzero;stroke:none"
       transform="matrix(1.3333333,0,0,-1.3333333,799.13666,2744.6116)"
       clip-path="url(#clipPath112)" />
    <path
       id="path113"
       d="m 0,0 c 0,-4.098 0.672,-7.197 2.02,-9.296 1.344,-2.098 3.536,-3.147 6.572,-3.147 3.012,0 5.18,1.043 6.501,3.128 1.32,2.088 1.981,5.191 1.981,9.315 0,4.099 -0.667,7.173 -2,9.223 -1.334,2.048 -3.519,3.074 -6.555,3.074 -3.014,0 -5.185,-1.019 -6.518,-3.055 C 0.666,7.203 0,4.124 0,0 m 28.629,0 c 0,-6.741 -1.778,-12.012 -5.333,-15.814 -3.555,-3.802 -8.506,-5.704 -14.852,-5.704 -3.976,0 -7.48,0.871 -10.518,2.612 -3.036,1.741 -5.369,4.24 -6.999,7.5 -1.631,3.259 -2.445,7.061 -2.445,11.406 0,6.765 1.765,12.025 5.296,15.778 3.53,3.752 8.495,5.629 14.889,5.629 3.974,0 7.48,-0.865 10.518,-2.592 3.036,-1.728 5.371,-4.21 6.999,-7.445 C 27.815,8.135 28.629,4.347 28.629,0"
       style="fill:#eaeaea;fill-opacity:1;fill-rule:nonzero;stroke:none"
       transform="matrix(1.3333333,0,0,-1.3333333,892.92906,2748.3655)"
       clip-path="url(#clipPath114)" />
    <path
       id="path115"
       d="M 0,0 C 1.531,0 2.802,-0.11 3.815,-0.333 L 2.963,-10.926 c -0.913,0.247 -2.025,0.37 -3.334,0.37 -3.603,0 -6.413,-0.924 -8.425,-2.778 -2.012,-1.851 -3.018,-4.443 -3.018,-7.775 v -21.074 h -11.295 v 41.404 h 8.555 l 1.666,-6.961 h 0.556 c 1.284,2.321 3.017,4.191 5.204,5.61 C -4.944,-0.709 -2.568,0 0,0"
       style="fill:#eaeaea;fill-opacity:1;fill-rule:nonzero;stroke:none"
       transform="matrix(1.3333333,0,0,-1.3333333,1004.6968,2719.8227)"
       clip-path="url(#clipPath116)" />
    <path
       id="path117"
       d="m 0,0 c 2.89,0 5.005,0.839 6.351,2.518 1.346,1.679 2.082,4.532 2.205,8.556 v 1.223 c 0,4.443 -0.685,7.628 -2.055,9.554 -1.37,1.926 -3.6,2.888 -6.686,2.888 -2.518,0 -4.474,-1.067 -5.869,-3.203 -1.396,-2.136 -2.093,-5.241 -2.093,-9.314 0,-4.074 0.704,-7.13 2.11,-9.167 C -4.629,1.018 -2.617,0 0,0 m -3.963,-9 c -4.863,0 -8.684,1.889 -11.461,5.666 -2.778,3.778 -4.167,9.013 -4.167,15.704 0,6.789 1.413,12.079 4.241,15.87 2.827,3.788 6.722,5.685 11.685,5.685 5.209,0 9.183,-2.026 11.924,-6.075 h 0.37 C 8.062,30.937 7.778,33.689 7.778,36.109 V 49.368 H 19.11 V -8.259 H 10.445 L 8.259,-2.888 H 7.778 C 5.209,-6.964 1.297,-9 -3.963,-9"
       style="fill:#eaeaea;fill-opacity:1;fill-rule:nonzero;stroke:none"
       transform="matrix(1.3333333,0,0,-1.3333333,1072.9116,2765.0554)"
       clip-path="url(#clipPath118)" />
    <path
       id="path119"
       d="M 0,0 C -2.396,0 -4.272,-0.76 -5.629,-2.278 -6.988,-3.796 -7.765,-5.951 -7.963,-8.742 H 7.888 C 7.84,-5.951 7.111,-3.796 5.704,-2.278 4.296,-0.76 2.394,0 0,0 m 1.593,-34.889 c -6.668,0 -11.877,1.841 -15.63,5.519 -3.754,3.678 -5.629,8.889 -5.629,15.628 0,6.939 1.735,12.303 5.204,16.093 3.468,3.789 8.264,5.685 14.387,5.685 5.852,0 10.408,-1.666 13.667,-5 3.259,-3.334 4.889,-7.939 4.889,-13.814 v -5.481 H -8.221 c 0.123,-3.211 1.072,-5.717 2.851,-7.518 1.778,-1.803 4.271,-2.705 7.482,-2.705 2.493,0 4.85,0.26 7.073,0.779 2.222,0.518 4.542,1.346 6.962,2.482 v -8.742 c -1.975,-0.986 -4.086,-1.722 -6.333,-2.203 -2.246,-0.481 -4.988,-0.723 -8.221,-0.723"
       style="fill:#eaeaea;fill-opacity:1;fill-rule:nonzero;stroke:none"
       transform="matrix(1.3333333,0,0,-1.3333333,1167.3479,2730.5375)"
       clip-path="url(#clipPath120)" />
    <path
       id="path121"
       d="M 0,0 C 1.531,0 2.802,-0.11 3.815,-0.333 L 2.963,-10.926 c -0.913,0.247 -2.025,0.37 -3.334,0.37 -3.603,0 -6.413,-0.924 -8.425,-2.778 -2.012,-1.851 -3.018,-4.443 -3.018,-7.775 v -21.074 h -11.295 v 41.404 h 8.555 l 1.666,-6.961 h 0.556 c 1.284,2.321 3.017,4.191 5.204,5.61 C -4.944,-0.709 -2.568,0 0,0"
       style="fill:#eaeaea;fill-opacity:1;fill-rule:nonzero;stroke:none"
       transform="matrix(1.3333333,0,0,-1.3333333,1265.3859,2719.8227)"
       clip-path="url(#clipPath122)" />
    <path
       id="path123"
       d="m 0,0 c 0,-4.247 -1.477,-7.482 -4.427,-9.704 -2.95,-2.222 -7.364,-3.334 -13.24,-3.334 -3.012,0 -5.58,0.204 -7.703,0.612 -2.123,0.406 -4.111,1.006 -5.962,1.795 v 9.334 c 2.098,-0.989 4.463,-1.814 7.093,-2.48 2.628,-0.669 4.943,-1.002 6.943,-1.002 4.099,0 6.147,1.185 6.147,3.557 0,0.887 -0.271,1.609 -0.814,2.165 -0.543,0.556 -1.481,1.185 -2.814,1.889 -1.334,0.704 -3.111,1.524 -5.333,2.464 -3.186,1.332 -5.526,2.566 -7.02,3.702 -1.493,1.137 -2.579,2.439 -3.258,3.909 -0.68,1.467 -1.019,3.277 -1.019,5.425 0,3.678 1.427,6.523 4.277,8.535 2.853,2.013 6.895,3.02 12.13,3.02 4.987,0 9.839,-1.088 14.555,-3.259 l -3.407,-8.149 c -2.074,0.89 -4.012,1.618 -5.815,2.185 -1.802,0.569 -3.642,0.854 -5.518,0.854 -3.334,0 -5,-0.903 -5,-2.705 0,-1.013 0.537,-1.889 1.612,-2.629 1.073,-0.741 3.426,-1.84 7.055,-3.296 3.233,-1.31 5.605,-2.531 7.11,-3.667 C -2.901,8.085 -1.791,6.776 -1.074,5.296 -0.359,3.813 0,2.048 0,0"
       style="fill:#eaeaea;fill-opacity:1;fill-rule:nonzero;stroke:none"
       transform="matrix(1.3333333,0,0,-1.3333333,1349.3546,2759.6718)"
       clip-path="url(#clipPath124)" />
    <path
       class="cls-3"
       d="m 868.8082,1953.5581 -160.2436,-194.8984 13.1036,-15.6618 156.1396,186.6902 c 30.7531,36.7712 47.3903,82.7076 47.3903,130.374 0,3.055 -0.074,6.1285 -0.2024,9.202 -1.7852,39.6606 -14.9441,77.352 -37.6362,109.0989 41.2618,-71.4811 33.8818,-161.0534 -18.5329,-224.8049 z"
       id="path14-1-2"
       style="fill:url(#linearGradient32);stroke-width:0px" />
    <path
       class="cls-1"
       d="m 856.9745,2051.5962 c -0.1657,39.9367 -16.3796,75.9349 -42.5685,102.1607 -11.5577,11.5393 -25.0294,21.1278 -39.8815,28.2685 -8.5946,4.1225 -11.5945,14.852 -6.4414,22.8578 v 0 c 4.325,6.7174 13.0117,9.2572 20.226,5.7972 59.4266,-28.5814 100.4675,-89.3146 100.4675,-159.6731 0,-9.294 -7.9689,-16.7292 -17.447,-15.8274 -8.1714,0.7729 -14.3183,8.2265 -14.3551,16.4347 z"
       id="path15-6"
       style="fill:url(#linearGradient33);stroke-width:0px" />
    <circle
       class="cls-4"
       cx="724.07904"
       cy="2212.208"
       r="23.115431"
       id="circle15-6"
       style="fill:url(#linearGradient34);stroke-width:0px" />
    <path
       class="cls-5"
       d="m 1076.0926,2144.8861 -48.513,-31.8573 c -1.7116,-1.1227 -2.595,-3.1471 -2.2637,-5.1715 2.5398,-16.0115 3.9017,-32.1702 3.9017,-48.3658 0,-15.3121 -1.1779,-30.6058 -3.46,-45.7891 -0.2945,-2.0061 0.5705,-3.9937 2.2637,-5.1163 l 47.9424,-31.5813 c 7.1776,-4.7298 9.9934,-13.895 6.6991,-21.8456 l -28.9863,-69.8248 c -3.2943,-7.9505 -11.7786,-12.4227 -20.1892,-10.6743 l -54.163,11.2265 c -2.0428,0.4233 -4.1225,-0.4233 -5.3188,-2.1349 -5.1163,-7.3616 -10.5639,-14.5576 -16.4163,-21.5511 L 745.7039,1608.7775 c -12.5516,-14.9993 -35.5934,-14.9993 -48.1449,0 l -211.9406,253.4231 c -5.94444,7.1224 -11.50245,14.4471 -16.71078,21.956 -1.19626,1.7116 -3.25751,2.5581 -5.31876,2.1348 l -54.16299,-11.1344 c -8.42903,-1.73 -16.89488,2.7606 -20.18919,10.7112 l -28.87589,69.88 c -3.29431,7.9505 -0.4601,17.1157 6.73587,21.8271 l 48.03445,31.5445 c 1.69317,1.1042 2.57656,3.1103 2.2637,5.1163 -4.63781,31.25 -4.45377,63.0153 0.53371,94.1549 0.33127,2.0244 -0.55212,4.0305 -2.26369,5.1531 l -48.43934,31.9125 c -7.17756,4.7299 -9.99338,13.8951 -6.69906,21.8456 l 28.98631,69.8248 c 3.29431,7.9505 11.77856,12.4227 20.2076,10.6743 l 56.20583,-11.6497 c 2.02444,-0.4233 4.08569,0.4049 5.28195,2.0796 9.73568,13.6374 20.64928,26.6674 32.85118,38.8693 12.8644,12.846 26.6122,24.2749 40.9857,34.3603 1.6931,1.1962 2.5397,3.2575 2.1164,5.3003 l -11.6497,56.6476 c -1.73,8.429 2.7606,16.8948 10.7111,20.1892 l 69.8801,28.8758 c 7.9505,3.2944 17.1157,0.4601 21.8271,-6.7358 l 32.6671,-49.7461 c 1.1227,-1.7299 3.1655,-2.5765 5.2083,-2.2821 0,0 0.018,0 0.037,0 2.503,0.3681 5.0243,0.7362 7.5273,1.0491 6.5886,0.8282 13.1773,1.4723 19.8211,1.822 1.1963,0.1104 2.4661,0.1656 3.6624,0.2024 4.9139,0.2577 9.8277,0.3681 14.76,0.3681 10.1038,0 20.2444,-0.4785 30.293,-1.5091 5.3924,-0.5153 10.7111,-1.1963 16.0483,-2.0245 2.006,-0.3128 4.0305,0.5706 5.1347,2.2637 l 32.7407,49.6908 c 4.7299,7.1776 13.8951,9.9934 21.8456,6.6991 l 69.8248,-28.9863 c 7.9505,-3.2943 12.4227,-11.7786 10.6743,-20.2076 l -11.7417,-56.6107 c -0.4233,-2.0245 0.4048,-4.1041 2.098,-5.3004 14.2447,-10.0302 27.8269,-21.367 40.5624,-34.0842 12.3307,-12.3307 23.3179,-25.508 33.1273,-39.2742 1.1962,-1.6747 3.2575,-2.5029 5.2635,-2.0796 l 56.2794,11.5761 c 8.4291,1.73 16.8949,-2.7606 20.1892,-10.7111 l 28.8759,-69.88 c 3.2943,-7.9506 0.4601,-17.1157 -6.7358,-21.8272 z M 717.5825,1747.8749 c 2.0797,-2.4845 5.9077,-2.4845 7.9874,0 l 6.3678,7.6193 145.3732,173.8258 c 32.6487,39.0165 49.3227,88.5049 47.0774,139.2999 -2.2452,50.7951 -23.3362,98.5535 -59.2609,134.4781 -38.3355,38.3355 -89.3514,59.4817 -143.5328,59.4817 -54.1814,0 -105.1973,-21.1278 -143.5328,-59.4817 -35.9799,-35.943 -57.0156,-83.7014 -59.2609,-134.4781 -2.3005,-50.795 14.4287,-100.2834 47.0774,-139.2999 l 145.3733,-173.8258 6.3677,-7.6193 z"
       id="path16-2-8"
       style="fill:url(#linearGradient35);stroke-width:0px" />
    <path
       class="cls-2"
       d="m 367.04145,1977.5569 48.03445,31.5445 c 1.69317,1.1042 2.57656,3.1103 2.26369,5.1163 -0.34967,2.4109 -0.62573,4.8402 -0.9386,7.2512 H 522.1136 c 6.4046,-33.6794 21.3118,-65.3895 43.7095,-92.1673 l 145.3733,-173.8258 6.3677,-7.6193 c 2.0797,-2.4845 5.9077,-2.4845 7.9874,0 l -33.7162,-40.3048 c -20.0419,-23.962 -56.8867,-23.9068 -76.8551,0.092 l -16.8581,20.2629 -64.598,77.2416 -38.2067,45.7155 c 0,0 -0.1105,0.1841 -0.2393,0.2393 -0.092,0.037 -0.184,0 -0.276,0.037 l -9.2389,11.0608 c -5.94445,7.1223 -11.50246,14.4471 -16.7108,21.956 -1.19626,1.7115 -3.2575,2.5581 -5.31875,2.1348 l -54.16299,-11.1344 c -8.42903,-1.73 -16.89488,2.7606 -20.18919,10.7111 l -28.87589,69.88 c -3.29432,7.9506 -0.4601,17.1158 6.73587,21.8272 z"
       id="path17-38"
       style="fill:url(#linearGradient36);stroke-width:0px" />
    <path
       class="cls-6"
       d="m 1053.9341,2236.5933 28.8759,-69.88 c 3.2943,-7.9506 0.4601,-17.1157 -6.7358,-21.8272 l -48.513,-31.8573 c -1.7116,-1.1227 -2.595,-3.1471 -2.2637,-5.1715 2.5398,-16.0115 3.9017,-32.1702 3.9017,-48.3658 0,-15.3121 -1.1779,-30.6058 -3.46,-45.7891 -0.055,-0.4049 -0.037,-0.8098 0,-1.1963 -30.5507,-41.1697 -65.187,-77.7937 -96.8787,-104.1667 -34.6731,-28.839 -74.5178,-47.3167 -115.7796,-55.8561 l 64.2484,76.8183 c 32.6487,39.0165 49.3227,88.5049 47.0774,139.2999 -2.2452,50.7951 -23.3362,98.5535 -59.2609,134.4781 -38.3355,38.3355 -89.3514,59.4817 -143.5328,59.4817 -54.1814,0 -105.1973,-21.1278 -143.5328,-59.4817 -35.9798,-35.943 -57.0156,-83.7014 -59.2609,-134.4781 -0.1472,-3.055 -0.2025,-6.0917 -0.2025,-9.1284 0,-1.0674 0.037,-2.1348 0.055,-3.2023 0.037,-1.9692 0.055,-3.92 0.1473,-5.8708 0.055,-1.3067 0.1656,-2.595 0.2392,-3.9017 0.1104,-1.6932 0.2025,-3.4047 0.3681,-5.0979 0.1288,-1.4355 0.2945,-2.8526 0.4601,-4.2881 0.1656,-1.546 0.3313,-3.0735 0.5521,-4.6194 0.2025,-1.5276 0.4417,-3.0551 0.681,-4.5642 0.2208,-1.3987 0.4417,-2.8158 0.6993,-4.2145 0.2945,-1.6196 0.6073,-3.2207 0.9386,-4.8219 0.2577,-1.2883 0.5337,-2.5582 0.8098,-3.828 0.3865,-1.6932 0.7914,-3.3864 1.2147,-5.0795 0.2944,-1.1227 0.5889,-2.2637 0.8834,-3.3864 0.4785,-1.8036 0.9938,-3.5888 1.5275,-5.3739 0.2945,-0.957 0.5889,-1.9141 0.9018,-2.8711 0.6073,-1.914 1.2331,-3.8464 1.8956,-5.742 0.2577,-0.7362 0.5337,-1.4539 0.7914,-2.1901 0.7545,-2.098 1.5459,-4.1961 2.3741,-6.2758 0.1472,-0.368 0.3129,-0.7361 0.4601,-1.1042 6.3862,-15.6618 14.7416,-30.5506 24.9558,-44.3352 -1.141,1.3066 -2.3189,2.5765 -3.4231,3.92 -93.75004,112.6693 -78.4011,280.0169 34.2682,373.7669 25.8761,21.5327 54.6415,37.2313 84.7137,47.3904 0.5521,-0.092 1.1226,-0.1289 1.7115,-0.037 0,0 0.018,0 0.037,0 2.503,0.368 5.0243,0.7361 7.5273,1.049 6.5886,0.8282 13.1772,1.4723 19.8211,1.822 1.1962,0.1104 2.4661,0.1656 3.6624,0.2024 4.9139,0.2577 9.8277,0.3681 14.76,0.3681 10.1038,0 20.2444,-0.4785 30.293,-1.5091 5.3924,-0.5153 10.7111,-1.1963 16.0483,-2.0245 2.006,-0.3128 4.0121,0.5706 5.1347,2.2637 l 32.7407,49.6908 c 4.7299,7.1776 13.8951,9.9934 21.8456,6.6991 l 69.8248,-28.9863 c 7.9505,-3.2943 12.4227,-11.7786 10.6743,-20.1892 l -11.7417,-56.6107 c -0.4233,-2.0245 0.4049,-4.1041 2.098,-5.3004 14.2447,-10.0302 27.8269,-21.367 40.5624,-34.0842 12.7356,-12.7172 23.3179,-25.5079 33.1273,-39.2741 1.1962,-1.6748 3.2575,-2.503 5.2635,-2.0797 l 56.2795,11.5761 c 8.429,1.73 16.8948,-2.7606 20.1891,-10.7111 z"
       id="path18-7-5"
       style="fill:url(#linearGradient37);stroke-width:0px" />
  </g>
</svg>
